<?xml version="1.0" standalone="no"?>
<!DOCTYPE svg PUBLIC "-//W3C//DTD SVG 20010904//EN"
 "http://www.w3.org/TR/2001/REC-SVG-20010904/DTD/svg10.dtd">
<svg version="1.0" xmlns="http://www.w3.org/2000/svg"
 width="1500.000000pt" height="1500.000000pt" viewBox="0 0 1500.000000 1500.000000"
 preserveAspectRatio="xMidYMid meet">

<g transform="translate(0.000000,1500.000000) scale(0.100000,-0.100000)"
fill="#163029" stroke="none">

<path d="M2606 7681 c36 -22 61 -69 75 -145 6 -35 9 -334 7 -828 -4 -864 -1
-834 -74 -898 l-35 -30 520 0 c403 0 545 3 633 15 418 55 645 244 665 554 21
330 -153 535 -522 616 -29 6 -29 7 22 25 136 48 234 133 273 238 29 75 25 195
-8 259 -44 85 -130 144 -257 177 -109 28 -294 36 -815 36 -508 0 -515 0 -484
-19z m1144 -43 c121 -32 184 -77 227 -162 38 -73 44 -207 14 -287 -26 -68 -86
-139 -149 -177 l-47 -27 -190 3 c-190 3 -367 -11 -550 -44 -44 -8 -99 -17
-122 -20 l-43 -7 0 294 c0 306 6 366 44 424 l18 27 371 -5 c281 -3 385 -8 427
-19z m-84 -729 c89 -12 217 -50 284 -84 117 -59 189 -164 215 -311 58 -325
-82 -538 -410 -625 -83 -22 -357 -37 -683 -38 l-143 -1 -17 38 c-15 33 -17 90
-20 505 l-3 467 23 9 c19 7 168 30 293 44 73 9 391 6 461 -4z"/>
<path d="M4533 7680 c14 -11 36 -41 49 -68 l23 -47 3 -804 c3 -896 4 -881 -63
-948 l-33 -33 697 0 698 0 45 153 c25 85 41 154 36 156 -6 2 -22 -6 -37 -18
-97 -78 -213 -149 -312 -191 -125 -53 -193 -61 -498 -58 l-275 3 -20 35 c-21
34 -21 48 -24 857 -2 810 -2 822 18 877 12 31 34 66 51 81 l31 25 -208 0 -207
0 26 -20z"/>
<path d="M6775 7685 c-90 -17 -205 -55 -280 -93 -202 -102 -397 -312 -474
-511 -49 -127 -64 -225 -58 -375 6 -153 23 -227 81 -351 133 -282 399 -486
717 -551 116 -23 362 -15 474 16 347 95 626 374 706 707 25 103 30 290 10 392
-31 157 -120 331 -235 458 -113 125 -323 249 -496 293 -113 28 -332 36 -445
15z m269 -59 c261 -51 512 -266 622 -536 147 -361 91 -754 -145 -1011 -212
-232 -532 -293 -820 -159 -89 42 -175 106 -252 188 -83 87 -120 140 -169 244
-185 389 -120 826 162 1094 166 157 381 222 602 180z"/>
<path d="M8906 7690 c-160 -26 -276 -71 -416 -165 -197 -131 -341 -328 -401
-550 -30 -110 -33 -346 -5 -449 77 -287 267 -512 548 -646 148 -71 215 -84
433 -84 165 0 201 3 270 22 162 45 336 145 453 262 124 123 210 268 254 432
32 117 32 345 -1 463 -61 227 -208 425 -413 559 -172 112 -314 155 -528 161
-74 2 -162 0 -194 -5z m309 -80 c217 -67 407 -231 517 -446 154 -300 158 -631
10 -918 -37 -73 -65 -110 -142 -187 -80 -82 -108 -103 -181 -138 -549 -264
-1170 247 -1136 933 19 395 270 711 617 776 75 15 237 4 315 -20z"/>
<path d="M10205 7668 c20 -17 48 -54 63 -82 l27 -51 0 -800 c0 -895 3 -860
-71 -925 l-35 -30 121 0 121 0 -35 35 c-67 67 -66 50 -65 914 l0 776 432 -862
432 -863 160 0 c147 0 158 1 132 15 -49 25 -101 71 -135 119 l-33 45 381 759
c209 417 387 767 395 778 13 17 15 -70 12 -781 -2 -755 -3 -802 -21 -843 -10
-23 -32 -53 -48 -67 l-30 -25 202 0 201 0 -34 34 c-63 63 -62 48 -62 926 0
878 -1 863 62 926 l34 34 -128 0 -128 0 -425 -850 c-234 -467 -427 -850 -430
-850 -3 0 -183 356 -400 791 -217 435 -412 818 -433 850 l-39 59 -129 0 -130
0 36 -32z"/>

</g>
</svg>
